<?xml version="1.0" encoding="utf-8"?>
<!-- Generator: Adobe Illustrator 16.0.0, SVG Export Plug-In . SVG Version: 6.00 Build 0)  -->
<!DOCTYPE svg PUBLIC "-//W3C//DTD SVG 1.1//EN" "http://www.w3.org/Graphics/SVG/1.1/DTD/svg11.dtd">
<svg version="1.1" id="Layer_1" xmlns="http://www.w3.org/2000/svg" xmlns:xlink="http://www.w3.org/1999/xlink" x="0px" y="0px"
	 width="527.299px" height="620px" viewBox="0 0 527.299 620" enable-background="new 0 0 527.299 620" xml:space="preserve">
<symbol  id="CodeDoc" viewBox="-217.665 -280 435.331 560">
	<g>
		<path fill="#FFFFFF" d="M212.334-263.518c0-6.342-6.193-11.482-13.832-11.482h-397.335c-7.64,0-13.833,5.141-13.833,11.482
			v527.035c0,6.341,6.193,11.482,13.833,11.482h397.335c7.639,0,13.832-5.141,13.832-11.482V-263.518z"/>
		<g>
			<path d="M207.334-263.518c-0.463-7.128-9.01-6.482-14.196-6.482c-6.506,0-13.012,0-19.517,0c-23.702,0-47.404,0-71.106,0
				c-64.023,0-128.046,0-192.07,0c-36.386,0-72.772,0-109.158,0c-6.7,0-8.952,4.084-8.952,9.486c0,4.648,0,9.297,0,13.945
				c0,18.685,0,37.369,0,56.053c0,60.008,0,120.016,0,180.024c0,61.797,0,123.594,0,185.391c0,29.509,0,59.019,0,88.528
				c0,6.63,7.932,6.573,12.77,6.573c5.978,0,11.956,0,17.933,0c22.983,0,45.965,0,68.948,0c63.93,0,127.859,0,191.788,0
				c38.085,0,76.17,0,114.255,0c5.768,0,9.307-3.25,9.307-8.556c0-4.216,0-8.432,0-12.648c0-18.01,0-36.021,0-54.032
				c0-59.428,0-118.855,0-178.284c0-62.239,0-124.478,0-186.717c0-30.974,0-61.947,0-92.921
				C207.334-263.277,207.334-263.397,207.334-263.518c0-6.448,10-6.448,10,0c0,28.014,0,56.028,0,84.042
				c0,61.324,0,122.648,0,183.973c0,60.558,0,121.115,0,181.673c0,19.342,0,38.684,0,58.026c0,9.433,2.069,21.801-4.134,29.638
				c-4.707,5.948-12.448,6.166-19.323,6.166c-6.243,0-12.486,0-18.729,0c-23.346,0-46.691,0-70.037,0c-63.982,0-127.966,0-191.949,0
				c-37.242,0-74.484,0-111.727,0c-10.14,0-19.101-6.981-19.101-17.476c0-3.553,0-7.105,0-10.658c0-16.972,0-33.943,0-50.915
				c0-58.5,0-117,0-175.5c0-62.845,0-125.689,0-188.534c0-33.113,0-66.227,0-99.339c0-10.489,8.837-17.577,19.045-17.577
				c3.437,0,6.873,0,10.31,0c19.413,0,38.826,0,58.239,0c62.84,0,125.681,0,188.521,0c45.062,0,90.126,0,135.188,0
				c1.532,0,3.064,0,4.597,0c9.789,0,18.447,6.406,19.101,16.482C217.752-257.076,207.75-257.116,207.334-263.518z"/>
		</g>
	</g>
	<polygon fill="#D1D3D4" points="23.638,235 -187.666,235 -187.666,245 23.638,245 	"/>
	<polygon fill="#D1D3D4" points="-31.97,215.217 -187.666,215.217 -187.666,225.217 -31.97,225.217 	"/>
	<polygon fill="#D1D3D4" points="53.248,195.478 -187.666,195.478 -187.666,205.478 53.248,205.478 	"/>
	<polygon fill="#D1D3D4" points="81.074,175.043 -187.666,175.043 -187.666,185.044 81.074,185.044 	"/>
	<polygon fill="#D1D3D4" points="-78.926,154.391 -187.666,154.391 -187.666,164.392 -78.926,164.392 	"/>
	<polygon fill="#D1D3D4" points="-16.318,120.261 -187.666,120.261 -187.666,130.262 -16.318,130.262 	"/>
	<polygon fill="#D1D3D4" points="-109.818,90.261 -187.666,90.261 -187.666,100.262 -109.818,100.262 	"/>
	<polygon fill="#D1D3D4" points="16.726,69.826 -187.666,69.826 -187.666,79.827 16.726,79.827 	"/>
	<polygon fill="#D1D3D4" points="-5.883,48.217 -187.666,48.217 -187.666,58.218 -5.883,58.218 	"/>
	<polygon fill="#D1D3D4" points="-78.926,28.087 -187.666,28.087 -187.666,38.088 -78.926,38.088 	"/>
	<polygon fill="#D1D3D4" points="-148.742,-4.912 -187.666,-4.912 -187.666,5.089 -148.742,5.089 	"/>
	<polygon fill="#D1D3D4" points="-41.535,-25.564 -187.666,-25.564 -187.666,-15.562 -41.535,-15.562 	"/>
	<polygon fill="#D1D3D4" points="48.03,-46.955 -187.666,-46.955 -187.666,-36.953 48.03,-36.953 	"/>
	<polygon fill="#D1D3D4" points="29.769,-68.435 -187.666,-68.435 -187.666,-58.433 29.769,-58.433 	"/>
	<polygon fill="#D1D3D4" points="132.378,-97.131 -187.644,-97.131 -187.644,-87.129 132.378,-87.129 	"/>
	<polygon fill="#D1D3D4" points="-5.883,-116.261 -187.644,-116.261 -187.644,-106.259 -5.883,-106.259 	"/>
	<polygon fill="#D1D3D4" points="44.552,-137.957 -187.655,-137.957 -187.655,-127.955 44.552,-127.955 	"/>
	<polygon fill="#D1D3D4" points="-53.296,-158.869 -187.655,-158.869 -187.655,-148.867 -53.296,-148.867 	"/>
	<polygon fill="#D1D3D4" points="9.769,-198.869 -187.655,-198.869 -187.655,-188.867 9.769,-188.867 	"/>
	<polygon fill="#D1D3D4" points="74.117,-221.479 -187.655,-221.479 -187.655,-211.477 74.117,-211.477 	"/>
	<polygon fill="#D1D3D4" points="-109.818,-243.393 -187.655,-243.393 -187.655,-233.391 -109.818,-233.391 	"/>
	<text transform="matrix(1 0 0 -1 -124.5132 -28.2603)" font-family="'Consolas'" font-size="150">&lt;/&gt;</text>
</symbol>
<use xlink:href="#CodeDoc"  width="435.331" height="560" x="-217.665" y="-280" transform="matrix(0.7532 -0.117 -0.117 -0.7532 220.8101 151.0269)" display="none" overflow="visible"/>
<use xlink:href="#CodeDoc"  width="435.331" height="560" x="-217.665" y="-280" transform="matrix(0.8181 0.0625 0.0625 -0.8181 432.6641 193.2642)" display="none" overflow="visible"/>
<use xlink:href="#CodeDoc"  width="435.331" height="560" x="-217.665" y="-280" transform="matrix(0.9887 -0.1497 -0.1497 -0.9887 172.9619 296.064)" display="none" overflow="visible"/>
<use xlink:href="#CodeDoc"  width="435.331" height="560" x="-217.665" y="-280" transform="matrix(0.8906 0.1378 0.1378 -0.8906 475.7295 321.1733)" display="none" overflow="visible"/>
<use xlink:href="#CodeDoc"  width="435.331" height="560" x="-217.665" y="-280" transform="matrix(1 0 0 -1 249.6333 280)" overflow="visible"/>
<use xlink:href="#CodeDoc"  width="435.331" height="560" x="-217.665" y="-280" transform="matrix(1 0 0 -1 279.6333 310)" overflow="visible"/>
<use xlink:href="#CodeDoc"  width="435.331" height="560" x="-217.665" y="-280" transform="matrix(1 0 0 -1 309.6333 340)" overflow="visible"/>
<circle id="Keep" fill="#FFFFFF" cx="298.322" cy="287.47" r="137.215"/>
<g id="AST_1_">
	
		<line fill="none" stroke="#000000" stroke-width="7" stroke-miterlimit="10" x1="335.091" y1="257.171" x2="221.415" y2="313.772"/>
	
		<line fill="none" stroke="#000000" stroke-width="7" stroke-miterlimit="10" x1="323.125" y1="313.772" x2="338.083" y2="257.171"/>
	<line fill="none" stroke="#000000" stroke-width="7" stroke-miterlimit="10" x1="406.14" y1="315.736" x2="338.083" y2="257.171"/>
	<line fill="none" stroke="#000000" stroke-width="7" stroke-miterlimit="10" x1="296.95" y1="175.732" x2="240.112" y2="254.447"/>
	<line fill="none" stroke="#000000" stroke-width="7" stroke-miterlimit="10" x1="338.083" y1="257.171" x2="296.95" y2="175.732"/>
	
		<line fill="none" stroke="#000000" stroke-width="7" stroke-miterlimit="10" x1="323.874" y1="317.182" x2="258.061" y2="378.008"/>
	<line fill="none" stroke="#000000" stroke-width="7" stroke-miterlimit="10" x1="372.11" y1="378.008" x2="323.041" y2="317.951"/>
	<g>
		<rect x="258.061" y="166.434" width="72.543" height="24.579"/>
		<path fill="#FFFFFF" d="M272.098,185.249c-0.497,0.19-1.006,0.33-1.528,0.421c-0.522,0.091-1.061,0.137-1.616,0.137
			c-1.738,0-3.077-0.471-4.015-1.413c-0.938-0.942-1.408-2.319-1.408-4.13c0-0.869,0.135-1.658,0.405-2.366
			c0.271-0.708,0.65-1.314,1.14-1.818c0.489-0.504,1.073-0.893,1.753-1.167c0.679-0.274,1.428-0.411,2.246-0.411
			c0.57,0,1.103,0.04,1.6,0.121c0.497,0.08,0.971,0.211,1.424,0.394v1.819c-0.475-0.249-0.958-0.429-1.451-0.542
			c-0.493-0.113-1.002-0.17-1.528-0.17c-0.489,0-0.952,0.093-1.386,0.279c-0.435,0.187-0.816,0.455-1.145,0.805
			s-0.588,0.778-0.778,1.282c-0.19,0.504-0.285,1.073-0.285,1.709c0,1.329,0.323,2.324,0.969,2.985
			c0.646,0.661,1.543,0.992,2.689,0.992c0.519,0,1.021-0.059,1.506-0.175c0.486-0.117,0.955-0.292,1.408-0.526V185.249z"/>
		<path fill="#FFFFFF" d="M279.635,171.741h-3.253v-1.567h5.182v13.892h3.276v1.588h-8.819v-1.588h3.615V171.741z"/>
		<path fill="#FFFFFF" d="M295.29,185.654l-0.044-1.479c-0.599,0.591-1.207,1.019-1.824,1.282c-0.617,0.263-1.265,0.395-1.944,0.395
			c-0.628,0-1.165-0.081-1.61-0.241c-0.446-0.161-0.812-0.382-1.101-0.663c-0.289-0.281-0.5-0.612-0.635-0.992
			c-0.135-0.38-0.203-0.792-0.203-1.238c0-1.103,0.411-1.966,1.232-2.591c0.821-0.625,2.036-0.937,3.643-0.937h2.278v-0.964
			c0-0.65-0.208-1.17-0.624-1.561c-0.417-0.391-1.052-0.586-1.906-0.586c-0.621,0-1.232,0.069-1.835,0.208s-1.226,0.336-1.868,0.591
			v-1.72c0.241-0.088,0.509-0.173,0.805-0.257s0.608-0.159,0.937-0.225c0.329-0.066,0.672-0.119,1.03-0.159
			c0.357-0.04,0.719-0.06,1.084-0.06c0.665,0,1.263,0.073,1.796,0.219s0.984,0.369,1.353,0.668c0.369,0.3,0.652,0.676,0.849,1.128
			c0.197,0.453,0.296,0.986,0.296,1.6v7.581H295.29z M295.082,180.647h-2.421c-0.475,0-0.884,0.048-1.227,0.143
			c-0.343,0.095-0.625,0.23-0.843,0.405c-0.219,0.175-0.382,0.385-0.488,0.63s-0.159,0.521-0.159,0.827
			c0,0.212,0.033,0.415,0.099,0.608c0.065,0.194,0.171,0.365,0.317,0.515c0.146,0.15,0.336,0.269,0.57,0.356
			c0.234,0.088,0.519,0.131,0.854,0.131c0.438,0,0.94-0.133,1.506-0.4s1.163-0.688,1.791-1.265V180.647z"/>
		<path fill="#FFFFFF" d="M309.269,182.652c0,0.387-0.065,0.734-0.197,1.041c-0.131,0.307-0.31,0.579-0.537,0.816
			s-0.489,0.44-0.789,0.608c-0.3,0.168-0.619,0.307-0.959,0.417c-0.339,0.109-0.688,0.19-1.046,0.241
			c-0.358,0.051-0.708,0.077-1.052,0.077c-0.745,0-1.43-0.033-2.054-0.099c-0.625-0.066-1.236-0.172-1.835-0.318v-1.753
			c0.643,0.183,1.282,0.321,1.917,0.417c0.636,0.095,1.267,0.142,1.896,0.142c0.913,0,1.588-0.124,2.026-0.372
			c0.438-0.249,0.658-0.603,0.658-1.063c0-0.197-0.035-0.374-0.104-0.531c-0.07-0.157-0.196-0.307-0.378-0.449
			c-0.182-0.142-0.465-0.29-0.849-0.443c-0.384-0.153-0.908-0.329-1.572-0.526c-0.497-0.146-0.955-0.312-1.375-0.499
			c-0.42-0.187-0.783-0.407-1.09-0.663c-0.307-0.255-0.548-0.555-0.723-0.898s-0.263-0.749-0.263-1.216
			c0-0.307,0.071-0.643,0.213-1.008c0.143-0.365,0.385-0.705,0.729-1.019c0.343-0.314,0.807-0.575,1.392-0.784
			c0.584-0.208,1.314-0.312,2.191-0.312c0.431,0,0.909,0.024,1.435,0.071s1.074,0.129,1.643,0.247v1.698
			c-0.599-0.146-1.167-0.254-1.703-0.323c-0.537-0.069-1.002-0.104-1.397-0.104c-0.475,0-0.875,0.037-1.2,0.11
			c-0.325,0.073-0.588,0.173-0.789,0.301c-0.201,0.127-0.345,0.277-0.433,0.449c-0.088,0.172-0.132,0.356-0.132,0.553
			c0,0.197,0.039,0.376,0.115,0.537s0.219,0.316,0.427,0.465c0.208,0.15,0.499,0.3,0.871,0.449c0.372,0.15,0.858,0.312,1.457,0.488
			c0.65,0.19,1.198,0.389,1.643,0.597c0.445,0.208,0.807,0.44,1.084,0.696c0.278,0.256,0.477,0.544,0.597,0.866
			S309.269,182.244,309.269,182.652z"/>
		<path fill="#FFFFFF" d="M321.604,182.652c0,0.387-0.065,0.734-0.197,1.041c-0.131,0.307-0.31,0.579-0.537,0.816
			s-0.489,0.44-0.789,0.608c-0.3,0.168-0.619,0.307-0.959,0.417c-0.339,0.109-0.688,0.19-1.046,0.241
			c-0.358,0.051-0.708,0.077-1.052,0.077c-0.745,0-1.43-0.033-2.054-0.099c-0.625-0.066-1.236-0.172-1.835-0.318v-1.753
			c0.643,0.183,1.282,0.321,1.917,0.417c0.636,0.095,1.268,0.142,1.896,0.142c0.913,0,1.588-0.124,2.027-0.372
			c0.438-0.249,0.657-0.603,0.657-1.063c0-0.197-0.035-0.374-0.104-0.531c-0.069-0.157-0.196-0.307-0.378-0.449
			c-0.183-0.142-0.466-0.29-0.849-0.443c-0.384-0.153-0.908-0.329-1.572-0.526c-0.497-0.146-0.955-0.312-1.375-0.499
			c-0.42-0.187-0.783-0.407-1.09-0.663c-0.307-0.255-0.548-0.555-0.723-0.898s-0.263-0.749-0.263-1.216
			c0-0.307,0.071-0.643,0.213-1.008c0.143-0.365,0.385-0.705,0.729-1.019c0.343-0.314,0.807-0.575,1.392-0.784
			c0.584-0.208,1.314-0.312,2.191-0.312c0.431,0,0.909,0.024,1.435,0.071s1.074,0.129,1.644,0.247v1.698
			c-0.599-0.146-1.167-0.254-1.704-0.323c-0.537-0.069-1.002-0.104-1.397-0.104c-0.475,0-0.875,0.037-1.2,0.11
			c-0.325,0.073-0.588,0.173-0.789,0.301c-0.201,0.127-0.345,0.277-0.433,0.449c-0.088,0.172-0.132,0.356-0.132,0.553
			c0,0.197,0.039,0.376,0.115,0.537s0.219,0.316,0.427,0.465c0.208,0.15,0.499,0.3,0.871,0.449c0.373,0.15,0.858,0.312,1.457,0.488
			c0.65,0.19,1.198,0.389,1.643,0.597c0.446,0.208,0.807,0.44,1.084,0.696c0.278,0.256,0.477,0.544,0.597,0.866
			S321.604,182.244,321.604,182.652z"/>
	</g>
	<g>
		<rect x="211.692" y="247.737" width="58.334" height="26.087"/>
		<path fill="#FFFFFF" d="M225.982,266.957h-1.917v-8.304h-4.261v8.304h-1.906v-8.304h-1.95v-1.589h1.95v-1.325
			c0-1.468,0.418-2.567,1.254-3.298c0.836-0.73,2.08-1.095,3.73-1.095c0.387,0,0.825,0.031,1.315,0.093
			c0.489,0.062,0.964,0.147,1.424,0.257v1.643c-0.438-0.124-0.905-0.223-1.402-0.296c-0.497-0.073-0.964-0.109-1.402-0.109
			c-0.979,0-1.726,0.223-2.241,0.668c-0.515,0.445-0.772,1.121-0.772,2.026v1.435h6.179V266.957z"/>
		<path fill="#FFFFFF" d="M238.81,260.876c0,0.271-0.003,0.497-0.011,0.679s-0.018,0.354-0.033,0.515h-7.724
			c0,1.125,0.314,1.988,0.942,2.591c0.628,0.603,1.534,0.904,2.717,0.904c0.321,0,0.643-0.013,0.964-0.039
			c0.321-0.025,0.632-0.06,0.931-0.104c0.3-0.043,0.586-0.093,0.86-0.148c0.273-0.055,0.527-0.115,0.761-0.181v1.567
			c-0.519,0.146-1.105,0.265-1.758,0.356c-0.654,0.091-1.331,0.137-2.032,0.137c-0.942,0-1.753-0.128-2.432-0.383
			c-0.679-0.256-1.236-0.626-1.67-1.112c-0.435-0.486-0.756-1.081-0.964-1.786c-0.208-0.705-0.312-1.503-0.312-2.394
			c0-0.774,0.111-1.506,0.334-2.196c0.223-0.69,0.548-1.296,0.975-1.819c0.427-0.522,0.951-0.937,1.572-1.243
			c0.621-0.307,1.326-0.46,2.115-0.46c0.767,0,1.446,0.12,2.038,0.361c0.591,0.241,1.09,0.583,1.495,1.024s0.712,0.979,0.92,1.61
			S238.81,260.095,238.81,260.876z M236.827,260.603c0.022-0.489-0.025-0.937-0.142-1.342c-0.117-0.405-0.298-0.754-0.542-1.046
			c-0.245-0.292-0.549-0.52-0.915-0.685c-0.365-0.164-0.789-0.247-1.271-0.247c-0.416,0-0.796,0.081-1.139,0.241
			s-0.639,0.387-0.888,0.679c-0.248,0.292-0.449,0.643-0.603,1.052c-0.153,0.409-0.248,0.858-0.285,1.347H236.827z"/>
		<path fill="#FFFFFF" d="M245.603,253.043h-3.254v-1.566h5.182v13.891h3.275v1.588h-8.819v-1.588h3.615V253.043z"/>
		<path fill="#FFFFFF" d="M253.632,261.688c0-0.935,0.128-1.766,0.384-2.493c0.255-0.727,0.619-1.34,1.09-1.84
			s1.037-0.88,1.698-1.139c0.661-0.259,1.396-0.389,2.208-0.389c0.351,0,0.695,0.022,1.035,0.066
			c0.339,0.044,0.674,0.113,1.002,0.208v-4.623h1.917v15.479h-1.709l-0.066-2.081c-0.533,0.774-1.11,1.347-1.731,1.72
			c-0.621,0.373-1.292,0.559-2.016,0.559c-0.628,0-1.181-0.131-1.66-0.395c-0.479-0.263-0.876-0.633-1.194-1.112
			c-0.318-0.478-0.557-1.053-0.718-1.725C253.713,263.25,253.632,262.505,253.632,261.688z M255.583,261.567
			c0,1.329,0.195,2.32,0.586,2.974c0.391,0.654,0.944,0.98,1.66,0.98c0.482,0,0.991-0.215,1.528-0.646
			c0.537-0.431,1.101-1.07,1.693-1.917v-5.105c-0.314-0.146-0.661-0.257-1.041-0.334c-0.379-0.077-0.756-0.115-1.128-0.115
			c-1.037,0-1.846,0.336-2.426,1.008S255.583,260.135,255.583,261.567z"/>
	</g>
	<g>
		<rect x="293.21" y="247.737" width="83.761" height="24.106"/>
		<path fill="#FFFFFF" d="M306.547,266.957v-7.898c0-0.343-0.013-0.625-0.039-0.844c-0.025-0.219-0.066-0.393-0.121-0.52
			c-0.055-0.128-0.124-0.217-0.208-0.269s-0.188-0.077-0.312-0.077c-0.146,0-0.281,0.044-0.406,0.131
			c-0.124,0.088-0.257,0.23-0.4,0.427c-0.142,0.197-0.299,0.458-0.471,0.783c-0.172,0.325-0.375,0.725-0.608,1.2v7.066h-1.742v-7.69
			c0-0.401-0.013-0.727-0.038-0.975c-0.026-0.248-0.066-0.442-0.121-0.581s-0.126-0.233-0.214-0.285
			c-0.087-0.051-0.193-0.077-0.317-0.077c-0.132,0-0.256,0.037-0.373,0.109c-0.117,0.073-0.247,0.205-0.389,0.395
			c-0.142,0.19-0.301,0.449-0.477,0.778s-0.383,0.749-0.624,1.26v7.066h-1.753v-10.999h1.457l0.087,2.093
			c0.19-0.417,0.375-0.771,0.553-1.063c0.179-0.292,0.363-0.527,0.553-0.707c0.19-0.179,0.393-0.31,0.608-0.394
			c0.216-0.084,0.455-0.126,0.718-0.126c0.592,0,1.041,0.193,1.348,0.581c0.307,0.387,0.46,0.986,0.46,1.796
			c0.175-0.379,0.347-0.717,0.515-1.013c0.168-0.296,0.349-0.544,0.542-0.745c0.193-0.201,0.407-0.354,0.641-0.46
			c0.233-0.106,0.504-0.159,0.811-0.159c1.38,0,2.07,1.062,2.07,3.188v8.008H306.547z"/>
		<path fill="#FFFFFF" d="M320.328,260.876c0,0.271-0.003,0.497-0.011,0.679s-0.019,0.354-0.033,0.515h-7.723
			c0,1.125,0.314,1.988,0.942,2.591c0.628,0.603,1.534,0.904,2.717,0.904c0.321,0,0.643-0.013,0.964-0.039
			c0.321-0.025,0.632-0.06,0.931-0.104c0.299-0.043,0.586-0.093,0.86-0.148c0.274-0.055,0.528-0.115,0.762-0.181v1.567
			c-0.519,0.146-1.105,0.265-1.758,0.356c-0.654,0.091-1.331,0.137-2.032,0.137c-0.942,0-1.753-0.128-2.432-0.383
			c-0.679-0.256-1.236-0.626-1.671-1.112c-0.435-0.486-0.756-1.081-0.964-1.786c-0.208-0.705-0.312-1.503-0.312-2.394
			c0-0.774,0.111-1.506,0.334-2.196c0.223-0.69,0.548-1.296,0.975-1.819c0.427-0.522,0.951-0.937,1.572-1.243
			c0.621-0.307,1.326-0.46,2.114-0.46c0.767,0,1.446,0.12,2.038,0.361c0.591,0.241,1.09,0.583,1.495,1.024s0.712,0.979,0.92,1.61
			S320.328,260.095,320.328,260.876z M318.345,260.603c0.022-0.489-0.025-0.937-0.142-1.342c-0.117-0.405-0.298-0.754-0.542-1.046
			c-0.245-0.292-0.55-0.52-0.915-0.685c-0.365-0.164-0.789-0.247-1.271-0.247c-0.417,0-0.796,0.081-1.139,0.241
			s-0.639,0.387-0.888,0.679c-0.248,0.292-0.449,0.643-0.603,1.052c-0.153,0.409-0.248,0.858-0.285,1.347H318.345z"/>
		<path fill="#FFFFFF" d="M332.236,266.803c-0.431,0.11-0.876,0.188-1.336,0.236c-0.46,0.047-0.928,0.071-1.402,0.071
			c-1.38,0-2.41-0.312-3.089-0.937s-1.019-1.583-1.019-2.875v-5.741h-3.079v-1.6h3.079v-3.023l1.906-0.493v3.517h4.94v1.6h-4.94
			v5.587c0,0.789,0.21,1.378,0.63,1.769s1.039,0.586,1.857,0.586c0.351,0,0.734-0.027,1.15-0.082
			c0.417-0.055,0.851-0.141,1.304-0.257V266.803z"/>
		<path fill="#FFFFFF" d="M344.55,266.957h-1.906v-7.022c0-0.847-0.159-1.481-0.477-1.901c-0.318-0.42-0.772-0.63-1.364-0.63
			c-0.255,0-0.495,0.035-0.717,0.104s-0.455,0.19-0.696,0.362c-0.241,0.171-0.504,0.403-0.789,0.695
			c-0.285,0.292-0.614,0.657-0.986,1.096v7.296h-1.906v-15.479h1.906v4.48l-0.065,1.731c0.299-0.358,0.593-0.659,0.882-0.904
			c0.289-0.245,0.577-0.443,0.865-0.597c0.289-0.153,0.583-0.263,0.882-0.329c0.299-0.065,0.609-0.098,0.931-0.098
			c1.095,0,1.942,0.334,2.542,1.002c0.599,0.668,0.898,1.674,0.898,3.018V266.957z"/>
		<path fill="#FFFFFF" d="M357.62,261.37c0,0.854-0.121,1.638-0.362,2.35c-0.241,0.712-0.588,1.322-1.04,1.83
			c-0.453,0.508-1.005,0.902-1.654,1.183c-0.65,0.281-1.389,0.422-2.213,0.422c-0.789,0-1.496-0.122-2.12-0.367
			s-1.154-0.604-1.589-1.079c-0.435-0.475-0.767-1.063-0.996-1.764c-0.23-0.701-0.346-1.508-0.346-2.421
			c0-0.854,0.121-1.634,0.361-2.339c0.241-0.705,0.588-1.311,1.041-1.818c0.453-0.508,1.004-0.902,1.654-1.184
			s1.388-0.421,2.213-0.421c0.789,0,1.495,0.122,2.119,0.367c0.625,0.245,1.154,0.603,1.589,1.074s0.767,1.057,0.997,1.758
			S357.62,260.464,357.62,261.37z M355.669,261.457c0-0.679-0.074-1.272-0.225-1.78c-0.148-0.508-0.363-0.932-0.641-1.271
			c-0.277-0.34-0.615-0.595-1.014-0.767c-0.397-0.171-0.841-0.257-1.33-0.257c-0.57,0-1.058,0.111-1.463,0.334
			c-0.405,0.223-0.738,0.521-0.996,0.893c-0.26,0.373-0.449,0.805-0.57,1.298c-0.121,0.493-0.181,1.009-0.181,1.55
			c0,0.679,0.075,1.275,0.225,1.786c0.149,0.512,0.363,0.937,0.641,1.276c0.277,0.34,0.614,0.595,1.008,0.767
			c0.395,0.171,0.84,0.257,1.337,0.257c0.569,0,1.057-0.111,1.463-0.334c0.404-0.223,0.736-0.521,0.996-0.893
			s0.449-0.805,0.57-1.298C355.609,262.525,355.669,262.005,355.669,261.457z"/>
		<path fill="#FFFFFF" d="M359.821,261.688c0-0.935,0.128-1.766,0.384-2.493c0.255-0.727,0.618-1.34,1.09-1.84
			s1.037-0.88,1.698-1.139c0.66-0.259,1.396-0.389,2.207-0.389c0.352,0,0.695,0.022,1.035,0.066s0.674,0.113,1.003,0.208v-4.623
			h1.917v15.479h-1.709l-0.066-2.081c-0.532,0.774-1.109,1.347-1.73,1.72s-1.293,0.559-2.016,0.559c-0.628,0-1.182-0.131-1.66-0.395
			c-0.479-0.263-0.876-0.633-1.193-1.112c-0.318-0.478-0.557-1.053-0.718-1.725C359.901,263.25,359.821,262.505,359.821,261.688z
			 M361.771,261.567c0,1.329,0.195,2.32,0.586,2.974c0.392,0.654,0.944,0.98,1.66,0.98c0.481,0,0.991-0.215,1.528-0.646
			c0.537-0.431,1.101-1.07,1.692-1.917v-5.105c-0.313-0.146-0.661-0.257-1.041-0.334s-0.756-0.115-1.128-0.115
			c-1.037,0-1.846,0.336-2.427,1.008S361.771,260.135,361.771,261.567z"/>
	</g>
	<g>
		<rect x="156.35" y="303.31" width="121.903" height="26.248"/>
		<path fill="#FFFFFF" d="M165.589,308.617h-3.253v-1.566h5.182v13.891h3.275v1.588h-8.819v-1.588h3.615V308.617z"/>
		<path fill="#FFFFFF" d="M183.752,316.943c0,0.854-0.121,1.638-0.361,2.35c-0.241,0.712-0.588,1.322-1.041,1.83
			c-0.453,0.508-1.004,0.902-1.654,1.183c-0.65,0.281-1.388,0.422-2.213,0.422c-0.789,0-1.495-0.123-2.12-0.367
			s-1.154-0.604-1.588-1.079c-0.435-0.475-0.767-1.063-0.997-1.764s-0.345-1.508-0.345-2.421c0-0.854,0.121-1.634,0.362-2.339
			c0.241-0.705,0.588-1.311,1.041-1.819c0.453-0.507,1.004-0.902,1.654-1.183s1.388-0.422,2.213-0.422
			c0.789,0,1.496,0.123,2.12,0.367c0.624,0.245,1.154,0.603,1.588,1.074c0.435,0.471,0.767,1.057,0.997,1.758
			C183.638,315.234,183.752,316.038,183.752,316.943z M181.803,317.031c0-0.679-0.075-1.272-0.225-1.78
			c-0.15-0.507-0.363-0.931-0.641-1.271c-0.277-0.34-0.615-0.595-1.013-0.767c-0.398-0.171-0.842-0.257-1.331-0.257
			c-0.57,0-1.057,0.111-1.462,0.334c-0.406,0.223-0.738,0.521-0.997,0.893s-0.449,0.805-0.57,1.298
			c-0.121,0.493-0.181,1.009-0.181,1.55c0,0.679,0.075,1.274,0.225,1.786s0.363,0.937,0.641,1.276
			c0.277,0.34,0.613,0.595,1.008,0.767c0.394,0.171,0.84,0.257,1.336,0.257c0.57,0,1.057-0.111,1.462-0.334
			c0.405-0.223,0.738-0.521,0.997-0.893s0.449-0.805,0.569-1.298C181.742,318.099,181.803,317.579,181.803,317.031z"/>
		<path fill="#FFFFFF" d="M195.058,322.125c-0.497,0.19-1.006,0.331-1.528,0.422c-0.522,0.091-1.061,0.137-1.616,0.137
			c-1.738,0-3.077-0.471-4.015-1.413s-1.408-2.319-1.408-4.13c0-0.869,0.135-1.658,0.405-2.367c0.271-0.708,0.65-1.314,1.14-1.818
			s1.074-0.893,1.753-1.167c0.679-0.273,1.428-0.411,2.246-0.411c0.57,0,1.103,0.04,1.6,0.121c0.497,0.08,0.971,0.212,1.424,0.395
			v1.818c-0.475-0.248-0.958-0.429-1.451-0.542c-0.493-0.113-1.002-0.17-1.528-0.17c-0.489,0-0.951,0.093-1.386,0.279
			c-0.435,0.186-0.816,0.455-1.145,0.805s-0.588,0.778-0.778,1.282s-0.285,1.074-0.285,1.709c0,1.329,0.323,2.324,0.969,2.985
			c0.646,0.661,1.543,0.991,2.689,0.991c0.519,0,1.021-0.058,1.506-0.175c0.486-0.117,0.955-0.292,1.408-0.526V322.125z"/>
		<path fill="#FFFFFF" d="M205.915,322.53l-0.044-1.479c-0.599,0.592-1.207,1.019-1.824,1.282c-0.617,0.263-1.265,0.395-1.944,0.395
			c-0.628,0-1.165-0.081-1.61-0.241c-0.446-0.161-0.812-0.381-1.101-0.663s-0.5-0.612-0.635-0.991
			c-0.135-0.38-0.203-0.792-0.203-1.238c0-1.103,0.411-1.966,1.232-2.591c0.821-0.625,2.036-0.937,3.643-0.937h2.278v-0.964
			c0-0.65-0.208-1.171-0.625-1.562c-0.416-0.391-1.051-0.586-1.906-0.586c-0.621,0-1.232,0.069-1.835,0.208
			s-1.226,0.336-1.868,0.592v-1.72c0.241-0.087,0.509-0.173,0.805-0.257s0.608-0.159,0.937-0.225
			c0.329-0.065,0.672-0.119,1.029-0.159c0.358-0.041,0.72-0.061,1.085-0.061c0.665,0,1.263,0.073,1.796,0.219
			s0.984,0.369,1.353,0.668s0.652,0.675,0.849,1.128c0.197,0.453,0.296,0.986,0.296,1.599v7.581H205.915z M205.707,317.524h-2.421
			c-0.475,0-0.884,0.047-1.227,0.143c-0.343,0.095-0.625,0.23-0.843,0.405c-0.219,0.175-0.382,0.385-0.488,0.63
			s-0.159,0.521-0.159,0.827c0,0.211,0.033,0.414,0.099,0.608c0.065,0.193,0.171,0.365,0.317,0.515
			c0.146,0.15,0.336,0.269,0.57,0.356c0.234,0.088,0.519,0.132,0.854,0.132c0.438,0,0.94-0.133,1.506-0.4s1.163-0.688,1.791-1.265
			V317.524z"/>
		<path fill="#FFFFFF" d="M214.931,308.617h-3.254v-1.566h5.182v13.891h3.276v1.588h-8.819v-1.588h3.615V308.617z"/>
		<path fill="#FFFFFF" d="M234.103,327.022h-12.335v-1.578h12.335V327.022z"/>
		<path fill="#FFFFFF" d="M234.826,311.531h2.169l2.695,7.274l0.581,1.775l0.603-1.819l2.673-7.23h2.092l-4.316,10.999h-2.191
			L234.826,311.531z"/>
		<path fill="#FFFFFF" d="M255.257,322.53l-0.044-1.479c-0.599,0.592-1.207,1.019-1.824,1.282c-0.617,0.263-1.266,0.395-1.945,0.395
			c-0.628,0-1.165-0.081-1.61-0.241c-0.445-0.161-0.812-0.381-1.101-0.663s-0.5-0.612-0.635-0.991
			c-0.135-0.38-0.203-0.792-0.203-1.238c0-1.103,0.411-1.966,1.232-2.591s2.036-0.937,3.643-0.937h2.279v-0.964
			c0-0.65-0.208-1.171-0.625-1.562c-0.417-0.391-1.052-0.586-1.906-0.586c-0.621,0-1.232,0.069-1.835,0.208
			s-1.225,0.336-1.868,0.592v-1.72c0.241-0.087,0.509-0.173,0.805-0.257c0.295-0.084,0.608-0.159,0.937-0.225
			c0.329-0.065,0.672-0.119,1.03-0.159c0.358-0.041,0.719-0.061,1.084-0.061c0.665,0,1.264,0.073,1.797,0.219
			s0.984,0.369,1.353,0.668c0.369,0.299,0.652,0.675,0.849,1.128c0.197,0.453,0.296,0.986,0.296,1.599v7.581H255.257z
			 M255.049,317.524h-2.421c-0.475,0-0.884,0.047-1.227,0.143c-0.343,0.095-0.624,0.23-0.843,0.405s-0.382,0.385-0.488,0.63
			c-0.105,0.245-0.159,0.521-0.159,0.827c0,0.211,0.033,0.414,0.099,0.608c0.066,0.193,0.172,0.365,0.318,0.515
			c0.146,0.15,0.336,0.269,0.569,0.356c0.234,0.088,0.519,0.132,0.854,0.132c0.438,0,0.94-0.133,1.506-0.4
			c0.566-0.267,1.163-0.688,1.792-1.265V317.524z"/>
		<path fill="#FFFFFF" d="M260.976,311.531h1.742l0.055,2.027c0.65-0.781,1.291-1.348,1.923-1.698s1.269-0.526,1.912-0.526
			c1.139,0,2.003,0.369,2.591,1.107c0.588,0.737,0.86,1.833,0.816,3.286h-1.928c0.022-0.964-0.119-1.663-0.422-2.098
			s-0.747-0.652-1.331-0.652c-0.256,0-0.513,0.045-0.772,0.137s-0.526,0.237-0.8,0.438c-0.274,0.201-0.564,0.458-0.871,0.772
			c-0.307,0.314-0.636,0.694-0.986,1.14v7.066h-1.928V311.531z"/>
	</g>
	<g>
		<rect x="305.924" y="306.301" width="35.898" height="23.3"/>
		<path fill="#FFFFFF" d="M315.163,316.1h-3.253v-1.578h5.182v9.411h3.275v1.588h-8.819v-1.588h3.615V316.1z M315.832,309.911
			c0.212,0,0.409,0.038,0.591,0.115c0.183,0.077,0.342,0.185,0.477,0.323c0.135,0.139,0.241,0.297,0.318,0.477
			c0.077,0.179,0.115,0.375,0.115,0.586c0,0.205-0.039,0.398-0.115,0.581s-0.183,0.343-0.318,0.482
			c-0.135,0.139-0.294,0.246-0.477,0.323c-0.182,0.077-0.379,0.115-0.591,0.115s-0.409-0.039-0.592-0.115s-0.341-0.184-0.477-0.323
			c-0.135-0.139-0.241-0.3-0.317-0.482s-0.115-0.376-0.115-0.581c0-0.211,0.039-0.407,0.115-0.586
			c0.077-0.179,0.183-0.338,0.317-0.477c0.135-0.139,0.294-0.247,0.477-0.323S315.62,309.911,315.832,309.911z"/>
		<path fill="#FFFFFF" d="M333.513,311.816c-1-0.211-1.862-0.317-2.585-0.317c-1.716,0-2.575,0.898-2.575,2.695v1.928h4.82v1.588
			h-4.82v7.811h-1.939v-7.811h-3.539v-1.588h3.539v-1.819c0-2.929,1.526-4.393,4.58-4.393c0.759,0,1.599,0.087,2.52,0.263V311.816z"
			/>
	</g>
	<g>
		<rect x="362.763" y="304.058" width="81.518" height="26.249"/>
		<path fill="#FFFFFF" d="M368.704,312.279h1.742l0.055,2.027c0.649-0.782,1.291-1.348,1.922-1.698
			c0.633-0.351,1.27-0.526,1.912-0.526c1.139,0,2.003,0.369,2.591,1.106c0.588,0.738,0.86,1.833,0.816,3.287h-1.929
			c0.022-0.964-0.118-1.663-0.422-2.098c-0.303-0.435-0.746-0.652-1.33-0.652c-0.256,0-0.514,0.045-0.773,0.137
			c-0.259,0.091-0.525,0.237-0.799,0.438c-0.273,0.201-0.564,0.458-0.871,0.772s-0.636,0.694-0.986,1.14v7.066h-1.928V312.279z"/>
		<path fill="#FFFFFF" d="M389.88,317.198c0,0.27-0.004,0.497-0.011,0.679s-0.019,0.354-0.032,0.515h-7.724
			c0,1.125,0.313,1.988,0.942,2.591c0.627,0.603,1.533,0.904,2.717,0.904c0.32,0,0.643-0.013,0.964-0.039s0.632-0.06,0.931-0.104
			c0.3-0.044,0.586-0.093,0.86-0.148s0.528-0.115,0.761-0.181v1.566c-0.518,0.146-1.104,0.265-1.758,0.356
			c-0.653,0.091-1.331,0.137-2.032,0.137c-0.942,0-1.753-0.128-2.432-0.383c-0.68-0.256-1.236-0.626-1.671-1.112
			c-0.435-0.485-0.756-1.081-0.964-1.786c-0.208-0.705-0.312-1.502-0.312-2.394c0-0.774,0.111-1.506,0.335-2.196
			c0.223-0.69,0.547-1.296,0.975-1.819c0.427-0.522,0.951-0.937,1.572-1.243c0.62-0.307,1.325-0.46,2.113-0.46
			c0.768,0,1.447,0.121,2.038,0.362c0.592,0.241,1.091,0.583,1.495,1.024c0.406,0.442,0.713,0.979,0.92,1.611
			C389.776,315.709,389.88,316.417,389.88,317.198z M387.897,316.924c0.021-0.489-0.025-0.937-0.143-1.342
			c-0.117-0.406-0.297-0.754-0.542-1.046s-0.55-0.521-0.915-0.685c-0.365-0.165-0.789-0.247-1.271-0.247
			c-0.417,0-0.796,0.081-1.14,0.241c-0.344,0.161-0.639,0.387-0.887,0.68c-0.249,0.292-0.449,0.643-0.604,1.052
			c-0.152,0.409-0.248,0.858-0.284,1.347H387.897z"/>
		<path fill="#FFFFFF" d="M401.788,323.125c-0.431,0.109-0.876,0.188-1.336,0.235c-0.461,0.048-0.928,0.071-1.402,0.071
			c-1.381,0-2.41-0.312-3.09-0.937c-0.679-0.625-1.019-1.583-1.019-2.876v-5.74h-3.078v-1.6h3.078v-3.023l1.906-0.493v3.517h4.94
			v1.6h-4.94v5.587c0,0.789,0.21,1.379,0.63,1.77s1.039,0.586,1.857,0.586c0.35,0,0.733-0.027,1.15-0.082
			c0.416-0.055,0.851-0.141,1.303-0.258V323.125z"/>
		<path fill="#FFFFFF" d="M414.103,323.278h-1.709l-0.066-1.775c-0.328,0.38-0.641,0.696-0.937,0.948s-0.59,0.455-0.882,0.608
			c-0.292,0.154-0.586,0.261-0.882,0.323s-0.608,0.093-0.937,0.093c-1.133,0-1.986-0.333-2.563-0.997s-0.866-1.669-0.866-3.013
			v-7.187h1.906v7.033c0,1.687,0.636,2.531,1.906,2.531c0.234,0,0.463-0.035,0.686-0.104s0.456-0.19,0.701-0.362
			c0.244-0.171,0.508-0.403,0.789-0.695c0.28-0.292,0.596-0.661,0.947-1.106v-7.296h1.906V323.278z"/>
		<path fill="#FFFFFF" d="M418.046,312.279h1.742l0.055,2.027c0.65-0.782,1.291-1.348,1.922-1.698
			c0.633-0.351,1.27-0.526,1.912-0.526c1.14,0,2.003,0.369,2.591,1.106c0.589,0.738,0.86,1.833,0.816,3.287h-1.929
			c0.022-0.964-0.118-1.663-0.422-2.098c-0.303-0.435-0.746-0.652-1.33-0.652c-0.256,0-0.514,0.045-0.772,0.137
			s-0.526,0.237-0.8,0.438c-0.273,0.201-0.564,0.458-0.871,0.772s-0.635,0.694-0.986,1.14v7.066h-1.928V312.279z"/>
		<path fill="#FFFFFF" d="M429.933,312.279h1.697l0.077,1.775c0.321-0.38,0.632-0.696,0.931-0.948
			c0.3-0.252,0.594-0.455,0.883-0.608c0.288-0.153,0.582-0.261,0.881-0.323c0.301-0.062,0.61-0.093,0.932-0.093
			c1.133,0,1.988,0.334,2.569,1.002c0.581,0.668,0.87,1.674,0.87,3.018v7.176h-1.906v-7.022c0-0.861-0.16-1.499-0.481-1.912
			s-0.8-0.619-1.435-0.619c-0.234,0-0.463,0.035-0.686,0.104s-0.454,0.19-0.695,0.361c-0.24,0.172-0.502,0.404-0.783,0.696
			s-0.598,0.657-0.947,1.096v7.296h-1.906V312.279z"/>
	</g>
	<g>
		<rect x="228.146" y="364.17" width="59.83" height="28.471"/>
		<path fill="#FFFFFF" d="M243.249,383.984c-0.431,0.109-0.876,0.188-1.336,0.235c-0.46,0.048-0.928,0.071-1.402,0.071
			c-1.38,0-2.41-0.312-3.089-0.938c-0.679-0.624-1.019-1.582-1.019-2.875v-5.74h-3.078v-1.6h3.078v-3.023l1.906-0.494v3.518h4.941
			v1.6h-4.941v5.586c0,0.789,0.21,1.379,0.63,1.77s1.039,0.586,1.857,0.586c0.351,0,0.734-0.027,1.15-0.082
			c0.417-0.055,0.851-0.141,1.304-0.257V383.984z"/>
		<path fill="#FFFFFF" d="M255.562,384.137h-1.906v-7.021c0-0.848-0.159-1.48-0.477-1.9c-0.317-0.42-0.772-0.631-1.364-0.631
			c-0.255,0-0.495,0.035-0.717,0.104c-0.223,0.069-0.455,0.19-0.696,0.362c-0.241,0.171-0.504,0.402-0.789,0.695
			c-0.285,0.291-0.613,0.656-0.986,1.096v7.295h-1.906v-15.479h1.906v4.48l-0.065,1.73c0.299-0.357,0.593-0.658,0.882-0.904
			c0.288-0.244,0.577-0.443,0.865-0.596c0.289-0.154,0.583-0.264,0.882-0.33c0.299-0.064,0.61-0.098,0.931-0.098
			c1.096,0,1.943,0.334,2.542,1.002c0.599,0.668,0.898,1.674,0.898,3.019V384.137z"/>
		<path fill="#FFFFFF" d="M268.347,378.057c0,0.271-0.003,0.497-0.011,0.68s-0.019,0.354-0.033,0.516h-7.723
			c0,1.124,0.314,1.988,0.942,2.59c0.628,0.604,1.534,0.904,2.717,0.904c0.321,0,0.643-0.013,0.964-0.039
			c0.321-0.025,0.632-0.06,0.931-0.104c0.299-0.043,0.586-0.094,0.86-0.148s0.528-0.114,0.762-0.18v1.566
			c-0.519,0.146-1.105,0.265-1.758,0.355c-0.654,0.092-1.331,0.137-2.032,0.137c-0.942,0-1.753-0.127-2.432-0.383
			s-1.236-0.627-1.671-1.111c-0.435-0.486-0.756-1.082-0.964-1.787c-0.208-0.704-0.312-1.502-0.312-2.393
			c0-0.774,0.111-1.507,0.334-2.197c0.223-0.689,0.548-1.296,0.975-1.818c0.427-0.521,0.951-0.937,1.572-1.243
			c0.621-0.307,1.326-0.46,2.114-0.46c0.767,0,1.446,0.12,2.038,0.361c0.591,0.241,1.09,0.582,1.495,1.024s0.712,0.979,0.92,1.61
			C268.243,376.569,268.347,377.275,268.347,378.057z M266.364,377.783c0.022-0.489-0.025-0.937-0.142-1.342
			c-0.117-0.405-0.298-0.754-0.542-1.047c-0.245-0.291-0.55-0.52-0.915-0.684c-0.365-0.164-0.789-0.247-1.271-0.247
			c-0.417,0-0.796,0.081-1.139,0.241s-0.639,0.387-0.888,0.68c-0.248,0.291-0.449,0.643-0.603,1.051
			c-0.153,0.409-0.248,0.858-0.285,1.348H266.364z"/>
		<path fill="#FFFFFF" d="M271.392,373.139h1.698l0.077,1.774c0.321-0.38,0.632-0.696,0.931-0.948s0.593-0.454,0.882-0.607
			s0.583-0.262,0.882-0.323c0.3-0.062,0.61-0.093,0.931-0.093c1.132,0,1.989,0.334,2.569,1.002s0.871,1.674,0.871,3.019v7.175
			h-1.906v-7.021c0-0.861-0.161-1.499-0.482-1.912c-0.321-0.412-0.799-0.619-1.435-0.619c-0.233,0-0.462,0.035-0.685,0.104
			s-0.455,0.19-0.696,0.362c-0.241,0.171-0.502,0.402-0.783,0.695c-0.281,0.291-0.597,0.656-0.948,1.096v7.295h-1.906V373.139z"/>
	</g>
	<g>
		<rect x="342.196" y="363.771" width="59.83" height="28.472"/>
		<path fill="#FFFFFF" d="M357.726,377.659c0,0.271-0.003,0.497-0.01,0.679c-0.008,0.184-0.02,0.355-0.033,0.516h-7.724
			c0,1.125,0.313,1.988,0.942,2.591c0.628,0.603,1.533,0.903,2.717,0.903c0.321,0,0.643-0.012,0.964-0.038
			c0.321-0.025,0.632-0.06,0.931-0.104c0.3-0.043,0.586-0.093,0.86-0.147s0.528-0.114,0.762-0.181v1.566
			c-0.519,0.146-1.104,0.266-1.759,0.355c-0.653,0.092-1.33,0.138-2.031,0.138c-0.943,0-1.754-0.128-2.433-0.384
			s-1.236-0.626-1.671-1.111c-0.435-0.486-0.756-1.081-0.964-1.786c-0.208-0.704-0.312-1.503-0.312-2.394
			c0-0.773,0.111-1.506,0.334-2.196s0.547-1.296,0.975-1.819c0.428-0.521,0.951-0.936,1.572-1.242s1.325-0.461,2.113-0.461
			c0.768,0,1.447,0.121,2.039,0.361c0.591,0.241,1.09,0.583,1.494,1.025c0.406,0.441,0.713,0.979,0.921,1.609
			C357.622,376.172,357.726,376.878,357.726,377.659z M355.743,377.385c0.021-0.488-0.025-0.936-0.143-1.342
			c-0.117-0.404-0.297-0.754-0.542-1.046s-0.55-0.521-0.915-0.685s-0.789-0.246-1.271-0.246c-0.417,0-0.796,0.08-1.14,0.24
			c-0.343,0.161-0.639,0.387-0.887,0.68c-0.248,0.292-0.449,0.643-0.604,1.051c-0.152,0.41-0.248,0.859-0.284,1.348H355.743z"/>
		<path fill="#FFFFFF" d="M364.519,369.826h-3.254v-1.566h5.182v13.891h3.275v1.589h-8.818v-1.589h3.615V369.826z"/>
		<path fill="#FFFFFF" d="M381.816,380.738c0,0.387-0.065,0.733-0.197,1.04s-0.31,0.579-0.536,0.816s-0.49,0.44-0.789,0.608
			c-0.3,0.168-0.619,0.307-0.959,0.416s-0.688,0.189-1.046,0.24c-0.358,0.052-0.708,0.077-1.052,0.077
			c-0.745,0-1.43-0.032-2.055-0.099c-0.624-0.066-1.235-0.172-1.834-0.318v-1.752c0.643,0.183,1.281,0.321,1.916,0.416
			c0.637,0.096,1.268,0.143,1.896,0.143c0.912,0,1.588-0.124,2.026-0.373c0.438-0.248,0.657-0.602,0.657-1.062
			c0-0.197-0.035-0.374-0.104-0.531c-0.07-0.156-0.195-0.307-0.379-0.449c-0.182-0.143-0.465-0.29-0.849-0.443
			s-0.907-0.328-1.572-0.525c-0.497-0.146-0.954-0.312-1.374-0.499c-0.421-0.187-0.784-0.407-1.091-0.663s-0.548-0.555-0.724-0.898
			c-0.175-0.343-0.262-0.748-0.262-1.215c0-0.307,0.07-0.643,0.213-1.008s0.385-0.705,0.729-1.02s0.807-0.575,1.392-0.783
			c0.584-0.209,1.314-0.312,2.19-0.312c0.432,0,0.91,0.023,1.436,0.071s1.074,0.13,1.644,0.247v1.697
			c-0.599-0.146-1.167-0.254-1.704-0.322c-0.537-0.07-1.002-0.104-1.396-0.104c-0.475,0-0.875,0.036-1.199,0.109
			c-0.325,0.073-0.588,0.173-0.789,0.302c-0.201,0.127-0.346,0.277-0.433,0.449c-0.088,0.171-0.132,0.355-0.132,0.553
			s0.039,0.376,0.115,0.537c0.076,0.16,0.219,0.315,0.428,0.465c0.207,0.15,0.498,0.3,0.871,0.449
			c0.372,0.15,0.857,0.312,1.457,0.488c0.649,0.189,1.197,0.389,1.643,0.597s0.807,0.44,1.084,0.696
			c0.278,0.255,0.477,0.543,0.598,0.865C381.757,379.963,381.816,380.328,381.816,380.738z"/>
		<path fill="#FFFFFF" d="M394.733,377.659c0,0.271-0.004,0.497-0.012,0.679c-0.008,0.184-0.018,0.355-0.033,0.516h-7.723
			c0,1.125,0.313,1.988,0.941,2.591c0.629,0.603,1.534,0.903,2.717,0.903c0.322,0,0.643-0.012,0.965-0.038
			c0.32-0.025,0.631-0.06,0.931-0.104c0.3-0.043,0.587-0.093,0.86-0.147s0.527-0.114,0.762-0.181v1.566
			c-0.52,0.146-1.105,0.266-1.759,0.355c-0.653,0.092-1.331,0.138-2.032,0.138c-0.941,0-1.753-0.128-2.432-0.384
			c-0.68-0.256-1.236-0.626-1.671-1.111c-0.435-0.486-0.756-1.081-0.964-1.786c-0.209-0.704-0.312-1.503-0.312-2.394
			c0-0.773,0.111-1.506,0.334-2.196s0.548-1.296,0.975-1.819c0.428-0.521,0.951-0.936,1.572-1.242s1.326-0.461,2.115-0.461
			c0.766,0,1.445,0.121,2.037,0.361c0.592,0.241,1.09,0.583,1.496,1.025c0.404,0.441,0.711,0.979,0.92,1.609
			C394.628,376.172,394.733,376.878,394.733,377.659z M392.75,377.385c0.021-0.488-0.026-0.936-0.143-1.342
			c-0.116-0.404-0.298-0.754-0.542-1.046c-0.245-0.292-0.55-0.521-0.915-0.685s-0.788-0.246-1.271-0.246
			c-0.416,0-0.797,0.08-1.14,0.24c-0.343,0.161-0.64,0.387-0.888,0.68c-0.248,0.292-0.449,0.643-0.602,1.051
			c-0.154,0.41-0.249,0.859-0.285,1.348H392.75z"/>
	</g>
</g>
<g>
	<path d="M137.503,256.919c-16.873,88.818,41.45,174.498,130.268,191.37c88.818,16.873,174.498-41.45,191.371-130.268
		c16.872-88.818-41.451-174.498-130.269-191.37C240.055,109.778,154.375,168.102,137.503,256.919z M163.518,261.862
		c14.143-74.451,85.962-123.339,160.413-109.195c74.451,14.144,123.339,85.962,109.195,160.413
		c-14.144,74.451-85.962,123.339-160.413,109.195C198.263,408.131,149.375,336.312,163.518,261.862z"/>
	<line fill="none" stroke="#000000" stroke-width="37" stroke-miterlimit="10" x1="177.464" y1="382.06" x2="18.237" y2="518.111"/>
	<circle cx="18.238" cy="518.111" r="18.234"/>
</g>
</svg>
