<?xml version="1.0" encoding="utf-8"?>
<!-- Generator: Adobe Illustrator 16.0.0, SVG Export Plug-In . SVG Version: 6.00 Build 0)  -->
<!DOCTYPE svg PUBLIC "-//W3C//DTD SVG 1.1//EN" "http://www.w3.org/Graphics/SVG/1.1/DTD/svg11.dtd">
<svg version="1.1" id="Layer_1" xmlns="http://www.w3.org/2000/svg" xmlns:xlink="http://www.w3.org/1999/xlink" x="0px" y="0px"
	 width="787.273px" height="703.175px" viewBox="0 0 787.273 703.175" enable-background="new 0 0 787.273 703.175"
	 xml:space="preserve">
<symbol  id="CodeDoc" viewBox="-217.666 -280 435.331 560">
	<g>
		<path fill="#FFFFFF" d="M212.334-263.518c0-6.342-6.193-11.482-13.832-11.482h-397.335c-7.64,0-13.833,5.141-13.833,11.482
			v527.035c0,6.341,6.193,11.482,13.833,11.482h397.335c7.639,0,13.832-5.141,13.832-11.482V-263.518z"/>
		<g>
			<path d="M207.334-263.518c-0.463-7.128-9.01-6.482-14.196-6.482c-6.506,0-13.012,0-19.517,0c-23.702,0-47.404,0-71.106,0
				c-64.023,0-128.046,0-192.07,0c-36.386,0-72.772,0-109.158,0c-6.7,0-8.952,4.084-8.952,9.486c0,4.648,0,9.297,0,13.945
				c0,18.685,0,37.369,0,56.053c0,60.008,0,120.016,0,180.024c0,61.797,0,123.594,0,185.391c0,29.509,0,59.019,0,88.528
				c0,6.63,7.932,6.573,12.77,6.573c5.978,0,11.956,0,17.933,0c22.983,0,45.965,0,68.948,0c63.93,0,127.859,0,191.788,0
				c38.085,0,76.17,0,114.255,0c5.768,0,9.307-3.25,9.307-8.556c0-4.216,0-8.432,0-12.648c0-18.01,0-36.021,0-54.032
				c0-59.428,0-118.855,0-178.284c0-62.239,0-124.478,0-186.717c0-30.974,0-61.947,0-92.921
				C207.334-263.277,207.334-263.397,207.334-263.518c0-6.448,10-6.448,10,0c0,28.014,0,56.028,0,84.042
				c0,61.324,0,122.648,0,183.973c0,60.558,0,121.115,0,181.673c0,19.342,0,38.684,0,58.026c0,9.433,2.069,21.801-4.134,29.638
				c-4.707,5.948-12.448,6.166-19.323,6.166c-6.243,0-12.486,0-18.729,0c-23.346,0-46.691,0-70.037,0c-63.982,0-127.966,0-191.949,0
				c-37.242,0-74.484,0-111.727,0c-10.14,0-19.101-6.981-19.101-17.476c0-3.553,0-7.105,0-10.658c0-16.972,0-33.943,0-50.915
				c0-58.5,0-117,0-175.5c0-62.845,0-125.689,0-188.534c0-33.113,0-66.227,0-99.339c0-10.489,8.837-17.577,19.045-17.577
				c3.437,0,6.873,0,10.31,0c19.413,0,38.826,0,58.239,0c62.84,0,125.681,0,188.521,0c45.062,0,90.126,0,135.188,0
				c1.532,0,3.064,0,4.597,0c9.789,0,18.447,6.406,19.101,16.482C217.752-257.076,207.75-257.116,207.334-263.518z"/>
		</g>
	</g>
	<polygon fill="#D1D3D4" points="23.638,235 -187.666,235 -187.666,245 23.638,245 	"/>
	<polygon fill="#D1D3D4" points="-31.97,215.217 -187.666,215.217 -187.666,225.217 -31.97,225.217 	"/>
	<polygon fill="#D1D3D4" points="53.248,195.478 -187.666,195.478 -187.666,205.478 53.248,205.478 	"/>
	<polygon fill="#D1D3D4" points="81.074,175.043 -187.666,175.043 -187.666,185.044 81.074,185.044 	"/>
	<polygon fill="#D1D3D4" points="-78.926,154.391 -187.666,154.391 -187.666,164.392 -78.926,164.392 	"/>
	<polygon fill="#D1D3D4" points="-16.318,120.261 -187.666,120.261 -187.666,130.262 -16.318,130.262 	"/>
	<polygon fill="#D1D3D4" points="-109.818,90.261 -187.666,90.261 -187.666,100.262 -109.818,100.262 	"/>
	<polygon fill="#D1D3D4" points="16.726,69.826 -187.666,69.826 -187.666,79.827 16.726,79.827 	"/>
	<polygon fill="#D1D3D4" points="-5.883,48.217 -187.666,48.217 -187.666,58.218 -5.883,58.218 	"/>
	<polygon fill="#D1D3D4" points="-78.926,28.087 -187.666,28.087 -187.666,38.088 -78.926,38.088 	"/>
	<polygon fill="#D1D3D4" points="-148.742,-4.912 -187.666,-4.912 -187.666,5.089 -148.742,5.089 	"/>
	<polygon fill="#D1D3D4" points="-41.535,-25.564 -187.666,-25.564 -187.666,-15.562 -41.535,-15.562 	"/>
	<polygon fill="#D1D3D4" points="48.03,-46.955 -187.666,-46.955 -187.666,-36.953 48.03,-36.953 	"/>
	<polygon fill="#D1D3D4" points="29.769,-68.435 -187.666,-68.435 -187.666,-58.433 29.769,-58.433 	"/>
	<polygon fill="#D1D3D4" points="132.378,-97.131 -187.644,-97.131 -187.644,-87.129 132.378,-87.129 	"/>
	<polygon fill="#D1D3D4" points="-5.883,-116.261 -187.644,-116.261 -187.644,-106.259 -5.883,-106.259 	"/>
	<polygon fill="#D1D3D4" points="44.552,-137.957 -187.655,-137.957 -187.655,-127.955 44.552,-127.955 	"/>
	<polygon fill="#D1D3D4" points="-53.296,-158.869 -187.655,-158.869 -187.655,-148.867 -53.296,-148.867 	"/>
	<polygon fill="#D1D3D4" points="9.769,-198.869 -187.655,-198.869 -187.655,-188.867 9.769,-188.867 	"/>
	<polygon fill="#D1D3D4" points="74.117,-221.479 -187.655,-221.479 -187.655,-211.477 74.117,-211.477 	"/>
	<polygon fill="#D1D3D4" points="-109.818,-243.393 -187.655,-243.393 -187.655,-233.391 -109.818,-233.391 	"/>
	<text transform="matrix(1 0 0 -1 -124.5132 -28.2607)" font-family="'Consolas'" font-size="150">&lt;/&gt;</text>
</symbol>
<use xlink:href="#CodeDoc"  width="435.331" height="560" x="-217.666" y="-280" transform="matrix(0.7532 -0.117 -0.117 -0.7532 302.5591 234.2021)" overflow="visible"/>
<use xlink:href="#CodeDoc"  width="435.331" height="560" x="-217.666" y="-280" transform="matrix(0.8181 0.0625 0.0625 -0.8181 514.4131 276.4395)" overflow="visible"/>
<use xlink:href="#CodeDoc"  width="435.331" height="560" x="-217.666" y="-280" transform="matrix(0.9887 -0.1497 -0.1497 -0.9887 254.7109 379.2393)" overflow="visible"/>
<use xlink:href="#CodeDoc"  width="435.331" height="560" x="-217.666" y="-280" transform="matrix(0.8906 0.1378 0.1378 -0.8906 557.4785 404.3486)" overflow="visible"/>
<use xlink:href="#CodeDoc"  width="435.331" height="560" x="-217.666" y="-280" transform="matrix(1 0 0 -1 391.3823 423.1753)" overflow="visible"/>
</svg>
