<?xml version="1.0" encoding="utf-8"?>
<!-- Generator: Adobe Illustrator 16.0.0, SVG Export Plug-In . SVG Version: 6.00 Build 0)  -->
<!DOCTYPE svg PUBLIC "-//W3C//DTD SVG 1.1//EN" "http://www.w3.org/Graphics/SVG/1.1/DTD/svg11.dtd">
<svg version="1.1" id="Layer_1" xmlns="http://www.w3.org/2000/svg" xmlns:xlink="http://www.w3.org/1999/xlink" x="0px" y="0px"
	 width="413.689px" height="95.922px" viewBox="0 0 413.689 95.922" enable-background="new 0 0 413.689 95.922"
	 xml:space="preserve">
<path fill="#FFFFFF" d="M262.427,64.693v-4.799c-2.951,3.305-7.594,5.744-13.377,5.744c-8.223,0-12.275-4.328-12.275-11.961v-26.99
	h9.994v23.057c0,5.074,2.479,7.002,7.003,7.002c3.58,0,6.688-1.85,8.655-4.328v-25.73h9.994v38.006H262.427z"/>
<path fill="#FFFFFF" d="M299.279,65.639c-11.804,0-20.303-7.908-20.303-19.988c0-7.316,3.424-13.652,9.482-17.232
	c3.029-1.809,6.374-2.676,10.151-2.676c11.37,0,19.042,8.42,19.042,20.932v2.203h-28.249c0.669,5.076,4.683,8.814,10.898,8.814
	c3.423,0,7.79-1.496,10.151-3.777l4.406,6.453c-3.698,3.422-9.6,5.271-15.659,5.271H299.279z M305.731,36.562
	c-1.417-1.73-3.896-2.871-7.042-2.871c-5.705,0-8.814,3.934-9.404,8.418h18.729C307.895,40.143,307.148,38.293,305.731,36.562z"/>
<path fill="#FFFFFF" d="M324.893,64.693V26.688h9.993v5.193c2.794-3.541,8.263-5.193,12.866-5.193V35.5
	c-0.709-0.156-2.36-0.236-3.501-0.236c-3.385,0-7.752,1.889-9.404,4.328v25.102H324.893z"/>
<path fill="#FFFFFF" d="M223.196,88.824c0.002,0.003-1.881-2.884-1.879-2.881c4.771,7.065,6.298,10.292,19.759,9.954
	c-3.392-5.189-20.328-30.942-20.328-30.942c0.21-0.193,0.437-0.367,0.641-0.568c4.84-4.762,7.752-11.686,7.752-19.555
	s-2.912-14.793-7.752-19.555c-4.839-4.76-11.842-7.594-19.71-7.594c-7.869,0-14.794,2.834-19.633,7.594
	c-4.84,4.762-7.751,11.686-7.751,19.555s2.912,14.793,7.751,19.555c4.839,4.76,11.764,7.594,19.633,7.594
	c3.363,0,6.495-0.494,9.47-1.471L223.196,88.824z M185.782,44.832c0-10.072,6.296-17.232,15.896-17.232
	c9.599,0,15.973,7.199,15.973,17.232c0,9.955-6.374,17.232-15.973,17.232C192.117,62.064,185.782,54.787,185.782,44.832z"/>
<g>
	<polygon fill="#FFFFFF" points="0,93.151 0,0 25.747,0 25.747,7.775 9.405,7.775 9.405,85.376 25.747,85.376 25.747,93.151 	"/>
</g>
<g>
	<polygon fill="#FFFFFF" points="387.943,93.151 387.943,85.376 404.285,85.376 404.285,7.775 387.943,7.775 387.943,0 413.689,0 
		413.689,93.151 	"/>
</g>
<g>
	<path fill="#FFFFFF" d="M22.96,59.682l4.565-7.388c3.113,2.905,9.089,5.479,13.862,5.479c4.441,0,6.724-1.702,6.724-4.316
		c0-1.577-1.453-2.698-3.694-3.237s-5.188-1.245-8.176-1.826s-5.935-1.867-8.176-3.527s-3.694-4.607-3.694-8.385
		c0-7.139,6.267-12.617,16.436-12.617c6.184,0,11.538,1.826,16.187,5.479l-4.233,7.223c-2.49-2.74-7.139-4.648-11.87-4.648
		c-3.777,0-6.309,1.701-6.309,3.984c0,1.41,1.453,2.406,3.694,2.946s5.146,1.204,8.135,1.826s5.894,1.95,8.135,3.694
		c2.241,1.742,3.694,4.772,3.694,8.674c0,7.554-6.433,12.866-17.349,12.866C33.876,65.907,27.194,63.583,22.96,59.682z"/>
	<path fill="#FFFFFF" d="M83.773,65.858c-11.838,0-20.361-7.932-20.361-20.046c0-7.339,3.433-13.692,9.509-17.283
		c3.039-1.814,6.393-2.683,10.181-2.683c11.404,0,19.098,8.444,19.098,20.992v2.21H73.869c0.671,5.09,4.696,8.839,10.93,8.839
		c3.433,0,7.813-1.5,10.181-3.788l4.419,6.471c-3.709,3.434-9.628,5.288-15.705,5.288H83.773z M90.244,36.698
		c-1.42-1.736-3.906-2.881-7.063-2.881c-5.722,0-8.839,3.946-9.431,8.444h18.782C92.415,40.289,91.665,38.434,90.244,36.698z"/>
	<path fill="#FFFFFF" d="M156.658,64.911v-24.07c0-4.064-1.894-6.076-5.682-6.076c-3.275,0-6.234,2.052-7.892,4.419v25.728h-10.102
		v-24.07c0-4.064-1.894-6.076-5.682-6.076c-3.235,0-6.155,2.052-7.892,4.498v25.648h-10.022V26.794h10.022v4.972
		c1.894-2.763,7.103-5.919,12.43-5.919c5.563,0,9.115,2.485,10.614,6.944c2.447-3.788,7.576-6.944,13.14-6.944
		c7.182,0,11.207,3.788,11.207,11.521v27.543H156.658z"/>
</g>
<path fill="#FFFFFF" d="M357.417,70.596c0.906,0.434,1.929,0.629,3.109,0.629c2.675,0,4.406-0.904,5.232-2.754l1.416-3.227
	l-15.423-38.557h10.702l9.914,26.439l9.916-26.439h10.779L375.203,70.91c-2.676,6.768-7.201,9.051-14.361,9.207
	c-1.85,0-3.502-0.197-4.997-0.551L357.417,70.596z"/>
</svg>
