<?xml version="1.0" encoding="utf-8"?>
<!-- Generator: Adobe Illustrator 16.0.0, SVG Export Plug-In . SVG Version: 6.00 Build 0)  -->
<!DOCTYPE svg PUBLIC "-//W3C//DTD SVG 1.1//EN" "http://www.w3.org/Graphics/SVG/1.1/DTD/svg11.dtd">
<svg version="1.1" id="Layer_1" xmlns="http://www.w3.org/2000/svg" xmlns:xlink="http://www.w3.org/1999/xlink" x="0px" y="0px"
	 width="136.689px" height="93.151px" viewBox="0 0 136.689 93.151" enable-background="new 0 0 136.689 93.151"
	 xml:space="preserve">
<path d="M82.196,78.824c0.002,0.003-1.881-2.884-1.879-2.881c4.771,7.065,6.298,10.292,19.759,9.954
	c-3.392-5.189-20.328-30.942-20.328-30.942c0.21-0.193,0.437-0.367,0.641-0.568c4.84-4.762,7.752-11.686,7.752-19.555
	s-2.912-14.793-7.752-19.555c-4.839-4.76-11.842-7.594-19.71-7.594c-7.869,0-14.794,2.834-19.633,7.594
	c-4.84,4.762-7.751,11.686-7.751,19.555s2.912,14.793,7.751,19.555c4.839,4.76,11.764,7.594,19.633,7.594
	c3.363,0,6.495-0.494,9.47-1.471L82.196,78.824z M44.782,34.832c0-10.072,6.296-17.232,15.896-17.232
	c9.599,0,15.973,7.199,15.973,17.232c0,9.955-6.374,17.232-15.973,17.232C51.117,52.064,44.782,44.787,44.782,34.832z"/>
<g>
	<polygon points="0,93.151 0,0 25.747,0 25.747,7.775 9.405,7.775 9.405,85.376 25.747,85.376 25.747,93.151 	"/>
</g>
<g>
	<polygon points="110.943,93.151 110.943,85.376 127.285,85.376 127.285,7.775 110.943,7.775 110.943,0 136.689,0 136.689,93.151 	
		"/>
</g>
</svg>
